<mxfile host="app.diagrams.net" agent="Mozilla/5.0 (Windows NT 10.0; Win64; x64) AppleWebKit/537.36 (KHTML, like Gecko) Chrome/135.0.0.0 Safari/537.36" version="28.2.8">
  <diagram name="Page-1" id="fP-dvQESyxHKGSXMY9-8">
    <mxGraphModel dx="802" dy="432" grid="1" gridSize="10" guides="1" tooltips="1" connect="1" arrows="1" fold="1" page="1" pageScale="1" pageWidth="3300" pageHeight="4681" math="0" shadow="0">
      <root>
        <mxCell id="0" />
        <mxCell id="1" parent="0" />
        <mxCell id="CgrZ7WxuLpIuJzu3LAh--15" value="&lt;b&gt;&lt;u&gt;Fac_id&lt;/u&gt;&lt;/b&gt;" style="whiteSpace=wrap;html=1;align=center;" vertex="1" parent="1">
          <mxGeometry x="160" y="150" width="100" height="30" as="geometry" />
        </mxCell>
        <mxCell id="CgrZ7WxuLpIuJzu3LAh--16" value="&lt;font style=&quot;font-size: 18px;&quot;&gt;FACULTY&lt;/font&gt;" style="text;html=1;whiteSpace=wrap;strokeColor=none;fillColor=none;align=center;verticalAlign=middle;rounded=0;" vertex="1" parent="1">
          <mxGeometry x="150" y="110" width="100" height="30" as="geometry" />
        </mxCell>
        <mxCell id="CgrZ7WxuLpIuJzu3LAh--17" value="&lt;b&gt;Fac_name&lt;/b&gt;" style="whiteSpace=wrap;html=1;align=center;" vertex="1" parent="1">
          <mxGeometry x="250" y="150" width="100" height="30" as="geometry" />
        </mxCell>
        <mxCell id="CgrZ7WxuLpIuJzu3LAh--18" value="&lt;b&gt;Dean&lt;/b&gt;" style="whiteSpace=wrap;html=1;align=center;" vertex="1" parent="1">
          <mxGeometry x="350" y="150" width="100" height="30" as="geometry" />
        </mxCell>
        <mxCell id="CgrZ7WxuLpIuJzu3LAh--21" value="&lt;span style=&quot;font-size: 18px;&quot;&gt;DEPARTMENT&lt;/span&gt;" style="text;html=1;whiteSpace=wrap;strokeColor=none;fillColor=none;align=center;verticalAlign=middle;rounded=0;" vertex="1" parent="1">
          <mxGeometry x="170" y="220" width="100" height="30" as="geometry" />
        </mxCell>
        <mxCell id="CgrZ7WxuLpIuJzu3LAh--23" value="&lt;b&gt;&lt;u&gt;Dep_id&lt;/u&gt;&lt;/b&gt;" style="whiteSpace=wrap;html=1;align=center;" vertex="1" parent="1">
          <mxGeometry x="160" y="270" width="100" height="30" as="geometry" />
        </mxCell>
        <mxCell id="CgrZ7WxuLpIuJzu3LAh--24" value="&lt;b&gt;Dep_name&lt;/b&gt;" style="whiteSpace=wrap;html=1;align=center;" vertex="1" parent="1">
          <mxGeometry x="250" y="270" width="100" height="30" as="geometry" />
        </mxCell>
        <mxCell id="CgrZ7WxuLpIuJzu3LAh--25" value="&lt;b&gt;HOD&lt;/b&gt;" style="whiteSpace=wrap;html=1;align=center;" vertex="1" parent="1">
          <mxGeometry x="350" y="270" width="100" height="30" as="geometry" />
        </mxCell>
        <mxCell id="CgrZ7WxuLpIuJzu3LAh--26" value="&lt;span style=&quot;font-size: 18px;&quot;&gt;ACADEMIC_STAFF&lt;/span&gt;" style="text;html=1;whiteSpace=wrap;strokeColor=none;fillColor=none;align=center;verticalAlign=middle;rounded=0;" vertex="1" parent="1">
          <mxGeometry x="190" y="330" width="100" height="30" as="geometry" />
        </mxCell>
        <mxCell id="CgrZ7WxuLpIuJzu3LAh--27" value="&lt;b&gt;&lt;u&gt;Staff_id&lt;/u&gt;&lt;/b&gt;" style="whiteSpace=wrap;html=1;align=center;" vertex="1" parent="1">
          <mxGeometry x="160" y="380" width="100" height="30" as="geometry" />
        </mxCell>
        <mxCell id="CgrZ7WxuLpIuJzu3LAh--28" value="&lt;b&gt;First_name&lt;/b&gt;" style="whiteSpace=wrap;html=1;align=center;" vertex="1" parent="1">
          <mxGeometry x="250" y="380" width="100" height="30" as="geometry" />
        </mxCell>
        <mxCell id="CgrZ7WxuLpIuJzu3LAh--29" value="&lt;b&gt;Last_name&lt;/b&gt;" style="whiteSpace=wrap;html=1;align=center;" vertex="1" parent="1">
          <mxGeometry x="350" y="380" width="100" height="30" as="geometry" />
        </mxCell>
        <mxCell id="CgrZ7WxuLpIuJzu3LAh--30" value="&lt;b&gt;Address&lt;/b&gt;" style="whiteSpace=wrap;html=1;align=center;" vertex="1" parent="1">
          <mxGeometry x="450" y="380" width="100" height="30" as="geometry" />
        </mxCell>
        <mxCell id="CgrZ7WxuLpIuJzu3LAh--31" value="&lt;b&gt;Status&lt;/b&gt;" style="whiteSpace=wrap;html=1;align=center;" vertex="1" parent="1">
          <mxGeometry x="550" y="380" width="100" height="30" as="geometry" />
        </mxCell>
        <mxCell id="CgrZ7WxuLpIuJzu3LAh--32" value="&lt;b&gt;Gender&lt;/b&gt;" style="whiteSpace=wrap;html=1;align=center;" vertex="1" parent="1">
          <mxGeometry x="650" y="380" width="100" height="30" as="geometry" />
        </mxCell>
        <mxCell id="CgrZ7WxuLpIuJzu3LAh--33" value="&lt;b&gt;Appoint_date&lt;/b&gt;" style="whiteSpace=wrap;html=1;align=center;" vertex="1" parent="1">
          <mxGeometry x="750" y="380" width="100" height="30" as="geometry" />
        </mxCell>
        <mxCell id="CgrZ7WxuLpIuJzu3LAh--34" value="&lt;b&gt;NIC&lt;/b&gt;" style="whiteSpace=wrap;html=1;align=center;" vertex="1" parent="1">
          <mxGeometry x="850" y="380" width="100" height="30" as="geometry" />
        </mxCell>
        <mxCell id="CgrZ7WxuLpIuJzu3LAh--35" value="&lt;b&gt;E_mail&lt;/b&gt;" style="whiteSpace=wrap;html=1;align=center;" vertex="1" parent="1">
          <mxGeometry x="950" y="380" width="100" height="30" as="geometry" />
        </mxCell>
        <mxCell id="CgrZ7WxuLpIuJzu3LAh--36" value="&lt;span style=&quot;font-size: 18px;&quot;&gt;STAFF_CONTUCT&lt;/span&gt;" style="text;html=1;whiteSpace=wrap;strokeColor=none;fillColor=none;align=center;verticalAlign=middle;rounded=0;" vertex="1" parent="1">
          <mxGeometry x="190" y="450" width="100" height="30" as="geometry" />
        </mxCell>
        <mxCell id="CgrZ7WxuLpIuJzu3LAh--38" value="&lt;b&gt;&lt;u&gt;Staff_id&lt;/u&gt;&lt;/b&gt;" style="whiteSpace=wrap;html=1;align=center;" vertex="1" parent="1">
          <mxGeometry x="160" y="500" width="100" height="30" as="geometry" />
        </mxCell>
        <mxCell id="CgrZ7WxuLpIuJzu3LAh--39" value="&lt;b&gt;Phone_number&lt;/b&gt;" style="whiteSpace=wrap;html=1;align=center;" vertex="1" parent="1">
          <mxGeometry x="260" y="500" width="100" height="30" as="geometry" />
        </mxCell>
        <mxCell id="CgrZ7WxuLpIuJzu3LAh--40" value="&lt;span style=&quot;font-size: 18px;&quot;&gt;STAFF_DEGREE&lt;/span&gt;" style="text;html=1;whiteSpace=wrap;strokeColor=none;fillColor=none;align=center;verticalAlign=middle;rounded=0;" vertex="1" parent="1">
          <mxGeometry x="180" y="570" width="100" height="30" as="geometry" />
        </mxCell>
        <mxCell id="CgrZ7WxuLpIuJzu3LAh--43" value="&lt;b&gt;&lt;u&gt;Staff_id&lt;/u&gt;&lt;/b&gt;" style="whiteSpace=wrap;html=1;align=center;" vertex="1" parent="1">
          <mxGeometry x="160" y="610" width="100" height="30" as="geometry" />
        </mxCell>
        <mxCell id="CgrZ7WxuLpIuJzu3LAh--44" value="&lt;b&gt;Degree&lt;/b&gt;" style="whiteSpace=wrap;html=1;align=center;" vertex="1" parent="1">
          <mxGeometry x="260" y="610" width="100" height="30" as="geometry" />
        </mxCell>
        <mxCell id="CgrZ7WxuLpIuJzu3LAh--46" value="&lt;span style=&quot;font-size: 18px;&quot;&gt;LECTURER&lt;/span&gt;" style="text;html=1;whiteSpace=wrap;strokeColor=none;fillColor=none;align=center;verticalAlign=middle;rounded=0;" vertex="1" parent="1">
          <mxGeometry x="160" y="680" width="100" height="30" as="geometry" />
        </mxCell>
        <mxCell id="CgrZ7WxuLpIuJzu3LAh--47" value="&lt;b&gt;&lt;u&gt;Lec_id&lt;/u&gt;&lt;/b&gt;" style="whiteSpace=wrap;html=1;align=center;" vertex="1" parent="1">
          <mxGeometry x="160" y="720" width="100" height="30" as="geometry" />
        </mxCell>
        <mxCell id="CgrZ7WxuLpIuJzu3LAh--48" value="&lt;b&gt;Type&lt;/b&gt;" style="whiteSpace=wrap;html=1;align=center;" vertex="1" parent="1">
          <mxGeometry x="260" y="720" width="100" height="30" as="geometry" />
        </mxCell>
        <mxCell id="CgrZ7WxuLpIuJzu3LAh--51" value="&lt;b&gt;Dep_id&lt;/b&gt;" style="whiteSpace=wrap;html=1;align=center;" vertex="1" parent="1">
          <mxGeometry x="360" y="720" width="100" height="30" as="geometry" />
        </mxCell>
        <mxCell id="CgrZ7WxuLpIuJzu3LAh--52" value="&lt;span style=&quot;font-size: 18px;&quot;&gt;DEMONSTARTOR&lt;/span&gt;" style="text;html=1;whiteSpace=wrap;strokeColor=none;fillColor=none;align=center;verticalAlign=middle;rounded=0;" vertex="1" parent="1">
          <mxGeometry x="186" y="776" width="100" height="30" as="geometry" />
        </mxCell>
        <mxCell id="CgrZ7WxuLpIuJzu3LAh--53" value="&lt;b&gt;&lt;u&gt;Dem_id&lt;/u&gt;&lt;/b&gt;" style="whiteSpace=wrap;html=1;align=center;" vertex="1" parent="1">
          <mxGeometry x="160" y="820" width="100" height="30" as="geometry" />
        </mxCell>
        <mxCell id="CgrZ7WxuLpIuJzu3LAh--54" value="&lt;b&gt;Type&lt;/b&gt;" style="whiteSpace=wrap;html=1;align=center;" vertex="1" parent="1">
          <mxGeometry x="260" y="820" width="100" height="30" as="geometry" />
        </mxCell>
        <mxCell id="CgrZ7WxuLpIuJzu3LAh--55" value="&lt;b&gt;Dep_id&lt;/b&gt;" style="whiteSpace=wrap;html=1;align=center;" vertex="1" parent="1">
          <mxGeometry x="360" y="820" width="100" height="30" as="geometry" />
        </mxCell>
        <mxCell id="CgrZ7WxuLpIuJzu3LAh--56" value="&lt;span style=&quot;font-size: 18px;&quot;&gt;DEAN&lt;/span&gt;" style="text;html=1;whiteSpace=wrap;strokeColor=none;fillColor=none;align=center;verticalAlign=middle;rounded=0;" vertex="1" parent="1">
          <mxGeometry x="136" y="873" width="100" height="30" as="geometry" />
        </mxCell>
        <mxCell id="CgrZ7WxuLpIuJzu3LAh--57" value="&lt;b&gt;&lt;u&gt;Dean_id&lt;/u&gt;&lt;/b&gt;" style="whiteSpace=wrap;html=1;align=center;" vertex="1" parent="1">
          <mxGeometry x="160" y="920" width="100" height="30" as="geometry" />
        </mxCell>
        <mxCell id="CgrZ7WxuLpIuJzu3LAh--58" value="&lt;b&gt;Appoint_date&lt;/b&gt;" style="whiteSpace=wrap;html=1;align=center;" vertex="1" parent="1">
          <mxGeometry x="260" y="920" width="100" height="30" as="geometry" />
        </mxCell>
        <mxCell id="CgrZ7WxuLpIuJzu3LAh--59" value="&lt;span style=&quot;font-size: 18px;&quot;&gt;COURSE&lt;/span&gt;" style="text;html=1;whiteSpace=wrap;strokeColor=none;fillColor=none;align=center;verticalAlign=middle;rounded=0;" vertex="1" parent="1">
          <mxGeometry x="149" y="975" width="100" height="30" as="geometry" />
        </mxCell>
        <mxCell id="CgrZ7WxuLpIuJzu3LAh--60" value="&lt;b&gt;&lt;u&gt;Course_id&lt;/u&gt;&lt;/b&gt;" style="whiteSpace=wrap;html=1;align=center;" vertex="1" parent="1">
          <mxGeometry x="160" y="1020" width="100" height="30" as="geometry" />
        </mxCell>
        <mxCell id="CgrZ7WxuLpIuJzu3LAh--61" value="&lt;b&gt;Course_name&lt;/b&gt;" style="whiteSpace=wrap;html=1;align=center;" vertex="1" parent="1">
          <mxGeometry x="260" y="1020" width="100" height="30" as="geometry" />
        </mxCell>
        <mxCell id="CgrZ7WxuLpIuJzu3LAh--62" value="&lt;b&gt;Total_credits&lt;/b&gt;" style="whiteSpace=wrap;html=1;align=center;" vertex="1" parent="1">
          <mxGeometry x="360" y="1020" width="100" height="30" as="geometry" />
        </mxCell>
        <mxCell id="CgrZ7WxuLpIuJzu3LAh--63" value="&lt;b&gt;Dep_id&lt;/b&gt;" style="whiteSpace=wrap;html=1;align=center;" vertex="1" parent="1">
          <mxGeometry x="460" y="1020" width="100" height="30" as="geometry" />
        </mxCell>
        <mxCell id="CgrZ7WxuLpIuJzu3LAh--64" style="edgeStyle=orthogonalEdgeStyle;rounded=0;orthogonalLoop=1;jettySize=auto;html=1;exitX=0.5;exitY=1;exitDx=0;exitDy=0;" edge="1" parent="1" source="CgrZ7WxuLpIuJzu3LAh--59" target="CgrZ7WxuLpIuJzu3LAh--59">
          <mxGeometry relative="1" as="geometry" />
        </mxCell>
        <mxCell id="CgrZ7WxuLpIuJzu3LAh--65" value="&lt;span style=&quot;font-size: 18px;&quot;&gt;STUDENT&lt;/span&gt;" style="text;html=1;whiteSpace=wrap;strokeColor=none;fillColor=none;align=center;verticalAlign=middle;rounded=0;" vertex="1" parent="1">
          <mxGeometry x="153" y="1074" width="100" height="30" as="geometry" />
        </mxCell>
        <mxCell id="CgrZ7WxuLpIuJzu3LAh--66" value="&lt;b&gt;&lt;u&gt;Reg_no&lt;/u&gt;&lt;/b&gt;" style="whiteSpace=wrap;html=1;align=center;" vertex="1" parent="1">
          <mxGeometry x="160" y="1120" width="100" height="30" as="geometry" />
        </mxCell>
        <mxCell id="CgrZ7WxuLpIuJzu3LAh--67" value="&lt;b&gt;First_name&lt;/b&gt;" style="whiteSpace=wrap;html=1;align=center;" vertex="1" parent="1">
          <mxGeometry x="260" y="1120" width="100" height="30" as="geometry" />
        </mxCell>
        <mxCell id="CgrZ7WxuLpIuJzu3LAh--68" value="&lt;b&gt;Last_name&lt;/b&gt;" style="whiteSpace=wrap;html=1;align=center;" vertex="1" parent="1">
          <mxGeometry x="360" y="1120" width="100" height="30" as="geometry" />
        </mxCell>
        <mxCell id="CgrZ7WxuLpIuJzu3LAh--69" value="&lt;b&gt;Batch&lt;/b&gt;" style="whiteSpace=wrap;html=1;align=center;" vertex="1" parent="1">
          <mxGeometry x="460" y="1120" width="100" height="30" as="geometry" />
        </mxCell>
        <mxCell id="CgrZ7WxuLpIuJzu3LAh--70" value="&lt;b&gt;Address&lt;/b&gt;" style="whiteSpace=wrap;html=1;align=center;" vertex="1" parent="1">
          <mxGeometry x="560" y="1120" width="100" height="30" as="geometry" />
        </mxCell>
        <mxCell id="CgrZ7WxuLpIuJzu3LAh--71" value="&lt;b&gt;Gender&lt;/b&gt;" style="whiteSpace=wrap;html=1;align=center;" vertex="1" parent="1">
          <mxGeometry x="660" y="1120" width="100" height="30" as="geometry" />
        </mxCell>
        <mxCell id="CgrZ7WxuLpIuJzu3LAh--72" value="&lt;b&gt;NIC&lt;/b&gt;" style="whiteSpace=wrap;html=1;align=center;" vertex="1" parent="1">
          <mxGeometry x="760" y="1120" width="100" height="30" as="geometry" />
        </mxCell>
        <mxCell id="CgrZ7WxuLpIuJzu3LAh--73" value="&lt;b&gt;E_mail&lt;/b&gt;" style="whiteSpace=wrap;html=1;align=center;" vertex="1" parent="1">
          <mxGeometry x="860" y="1120" width="100" height="30" as="geometry" />
        </mxCell>
        <mxCell id="CgrZ7WxuLpIuJzu3LAh--74" value="&lt;b&gt;DOB&lt;/b&gt;" style="whiteSpace=wrap;html=1;align=center;" vertex="1" parent="1">
          <mxGeometry x="960" y="1120" width="100" height="30" as="geometry" />
        </mxCell>
        <mxCell id="CgrZ7WxuLpIuJzu3LAh--75" value="&lt;b&gt;Course_id&lt;/b&gt;" style="whiteSpace=wrap;html=1;align=center;" vertex="1" parent="1">
          <mxGeometry x="1060" y="1120" width="100" height="30" as="geometry" />
        </mxCell>
        <mxCell id="CgrZ7WxuLpIuJzu3LAh--76" value="&lt;b&gt;Dep_id&lt;/b&gt;" style="whiteSpace=wrap;html=1;align=center;" vertex="1" parent="1">
          <mxGeometry x="1160" y="1120" width="100" height="30" as="geometry" />
        </mxCell>
        <mxCell id="CgrZ7WxuLpIuJzu3LAh--77" value="&lt;span style=&quot;font-size: 18px;&quot;&gt;STUDENT_CONTUCT&lt;/span&gt;" style="text;html=1;whiteSpace=wrap;strokeColor=none;fillColor=none;align=center;verticalAlign=middle;rounded=0;" vertex="1" parent="1">
          <mxGeometry x="200" y="1190" width="100" height="30" as="geometry" />
        </mxCell>
        <mxCell id="CgrZ7WxuLpIuJzu3LAh--78" value="&lt;b&gt;&lt;u&gt;Reg_no&lt;/u&gt;&lt;/b&gt;" style="whiteSpace=wrap;html=1;align=center;" vertex="1" parent="1">
          <mxGeometry x="160" y="1230" width="100" height="30" as="geometry" />
        </mxCell>
        <mxCell id="CgrZ7WxuLpIuJzu3LAh--79" value="&lt;b&gt;Phone_number&lt;/b&gt;" style="whiteSpace=wrap;html=1;align=center;" vertex="1" parent="1">
          <mxGeometry x="260" y="1230" width="100" height="30" as="geometry" />
        </mxCell>
        <mxCell id="CgrZ7WxuLpIuJzu3LAh--80" value="&lt;span style=&quot;font-size: 18px;&quot;&gt;SUBJECT&lt;/span&gt;" style="text;html=1;whiteSpace=wrap;strokeColor=none;fillColor=none;align=center;verticalAlign=middle;rounded=0;" vertex="1" parent="1">
          <mxGeometry x="153" y="1274" width="100" height="30" as="geometry" />
        </mxCell>
        <mxCell id="CgrZ7WxuLpIuJzu3LAh--81" value="&lt;b&gt;&lt;u&gt;Sub_code&lt;/u&gt;&lt;/b&gt;" style="whiteSpace=wrap;html=1;align=center;" vertex="1" parent="1">
          <mxGeometry x="160" y="1310" width="100" height="30" as="geometry" />
        </mxCell>
        <mxCell id="CgrZ7WxuLpIuJzu3LAh--82" value="&lt;b&gt;Phone_number&lt;/b&gt;" style="whiteSpace=wrap;html=1;align=center;" vertex="1" parent="1">
          <mxGeometry x="260" y="1310" width="100" height="30" as="geometry" />
        </mxCell>
        <mxCell id="CgrZ7WxuLpIuJzu3LAh--83" value="&lt;b&gt;Credit&lt;/b&gt;" style="whiteSpace=wrap;html=1;align=center;" vertex="1" parent="1">
          <mxGeometry x="360" y="1310" width="100" height="30" as="geometry" />
        </mxCell>
        <mxCell id="CgrZ7WxuLpIuJzu3LAh--84" value="&lt;b&gt;Total_hour&lt;/b&gt;" style="whiteSpace=wrap;html=1;align=center;" vertex="1" parent="1">
          <mxGeometry x="460" y="1310" width="100" height="30" as="geometry" />
        </mxCell>
        <mxCell id="CgrZ7WxuLpIuJzu3LAh--85" value="&lt;b&gt;Lec_id&lt;/b&gt;" style="whiteSpace=wrap;html=1;align=center;" vertex="1" parent="1">
          <mxGeometry x="560" y="1310" width="100" height="30" as="geometry" />
        </mxCell>
        <mxCell id="CgrZ7WxuLpIuJzu3LAh--86" value="&lt;span style=&quot;font-size: 18px;&quot;&gt;COURSE_SUBJECT&lt;/span&gt;" style="text;html=1;whiteSpace=wrap;strokeColor=none;fillColor=none;align=center;verticalAlign=middle;rounded=0;" vertex="1" parent="1">
          <mxGeometry x="200" y="1360" width="100" height="30" as="geometry" />
        </mxCell>
        <mxCell id="CgrZ7WxuLpIuJzu3LAh--87" value="&lt;b&gt;&lt;u&gt;Course_id&lt;/u&gt;&lt;/b&gt;" style="whiteSpace=wrap;html=1;align=center;" vertex="1" parent="1">
          <mxGeometry x="161" y="1401" width="100" height="30" as="geometry" />
        </mxCell>
        <mxCell id="CgrZ7WxuLpIuJzu3LAh--88" value="&lt;b&gt;Sub_code&lt;/b&gt;" style="whiteSpace=wrap;html=1;align=center;" vertex="1" parent="1">
          <mxGeometry x="261" y="1401" width="100" height="30" as="geometry" />
        </mxCell>
        <mxCell id="CgrZ7WxuLpIuJzu3LAh--90" value="&lt;span style=&quot;font-size: 18px;&quot;&gt;STUDENT_SUBJECT&lt;/span&gt;" style="text;html=1;whiteSpace=wrap;strokeColor=none;fillColor=none;align=center;verticalAlign=middle;rounded=0;" vertex="1" parent="1">
          <mxGeometry x="200" y="1450" width="100" height="30" as="geometry" />
        </mxCell>
        <mxCell id="CgrZ7WxuLpIuJzu3LAh--91" value="&lt;b&gt;&lt;u&gt;Red_no&lt;/u&gt;&lt;/b&gt;" style="whiteSpace=wrap;html=1;align=center;" vertex="1" parent="1">
          <mxGeometry x="161" y="1490" width="100" height="30" as="geometry" />
        </mxCell>
        <mxCell id="CgrZ7WxuLpIuJzu3LAh--92" value="&lt;b&gt;&lt;u&gt;Sub_code&lt;/u&gt;&lt;/b&gt;" style="whiteSpace=wrap;html=1;align=center;" vertex="1" parent="1">
          <mxGeometry x="260" y="1490" width="100" height="30" as="geometry" />
        </mxCell>
        <mxCell id="CgrZ7WxuLpIuJzu3LAh--96" value="&lt;span style=&quot;font-size: 18px;&quot;&gt;EXAM&lt;/span&gt;" style="text;html=1;whiteSpace=wrap;strokeColor=none;fillColor=none;align=center;verticalAlign=middle;rounded=0;" vertex="1" parent="1">
          <mxGeometry x="140" y="1530" width="100" height="30" as="geometry" />
        </mxCell>
        <mxCell id="CgrZ7WxuLpIuJzu3LAh--97" value="&lt;b&gt;&lt;u&gt;Exam_id&lt;/u&gt;&lt;/b&gt;" style="whiteSpace=wrap;html=1;align=center;" vertex="1" parent="1">
          <mxGeometry x="160" y="1560" width="100" height="30" as="geometry" />
        </mxCell>
        <mxCell id="CgrZ7WxuLpIuJzu3LAh--99" value="&lt;b&gt;&lt;u&gt;Exam_name&lt;/u&gt;&lt;/b&gt;" style="whiteSpace=wrap;html=1;align=center;" vertex="1" parent="1">
          <mxGeometry x="260" y="1560" width="100" height="30" as="geometry" />
        </mxCell>
        <mxCell id="CgrZ7WxuLpIuJzu3LAh--100" value="&lt;span style=&quot;font-size: 18px;&quot;&gt;EXAM_SUBJECT&lt;/span&gt;" style="text;html=1;whiteSpace=wrap;strokeColor=none;fillColor=none;align=center;verticalAlign=middle;rounded=0;" vertex="1" parent="1">
          <mxGeometry x="180" y="1610" width="100" height="30" as="geometry" />
        </mxCell>
        <mxCell id="CgrZ7WxuLpIuJzu3LAh--101" value="&lt;b&gt;&lt;u&gt;Exam_id&lt;/u&gt;&lt;/b&gt;" style="whiteSpace=wrap;html=1;align=center;" vertex="1" parent="1">
          <mxGeometry x="161" y="1650" width="100" height="30" as="geometry" />
        </mxCell>
        <mxCell id="CgrZ7WxuLpIuJzu3LAh--103" value="&lt;b&gt;&lt;u&gt;Sub_code&lt;/u&gt;&lt;/b&gt;" style="whiteSpace=wrap;html=1;align=center;" vertex="1" parent="1">
          <mxGeometry x="261" y="1650" width="100" height="30" as="geometry" />
        </mxCell>
        <mxCell id="CgrZ7WxuLpIuJzu3LAh--104" value="&lt;b&gt;Date&lt;/b&gt;" style="whiteSpace=wrap;html=1;align=center;" vertex="1" parent="1">
          <mxGeometry x="361" y="1650" width="120" height="30" as="geometry" />
        </mxCell>
        <mxCell id="CgrZ7WxuLpIuJzu3LAh--110" value="&lt;b&gt;Duration&lt;/b&gt;" style="whiteSpace=wrap;html=1;align=center;" vertex="1" parent="1">
          <mxGeometry x="481" y="1650" width="100" height="30" as="geometry" />
        </mxCell>
        <mxCell id="CgrZ7WxuLpIuJzu3LAh--111" value="&lt;span style=&quot;font-size: 18px;&quot;&gt;STUDENT_EXAM&lt;/span&gt;" style="text;html=1;whiteSpace=wrap;strokeColor=none;fillColor=none;align=center;verticalAlign=middle;rounded=0;" vertex="1" parent="1">
          <mxGeometry x="180" y="1690" width="100" height="30" as="geometry" />
        </mxCell>
        <mxCell id="CgrZ7WxuLpIuJzu3LAh--112" value="&lt;b&gt;&lt;u&gt;Reg_no&lt;/u&gt;&lt;/b&gt;" style="whiteSpace=wrap;html=1;align=center;" vertex="1" parent="1">
          <mxGeometry x="161" y="1730" width="110" height="30" as="geometry" />
        </mxCell>
        <mxCell id="CgrZ7WxuLpIuJzu3LAh--115" value="&lt;b&gt;&lt;u&gt;Exam_id&lt;/u&gt;&lt;/b&gt;" style="whiteSpace=wrap;html=1;align=center;" vertex="1" parent="1">
          <mxGeometry x="270" y="1730" width="110" height="30" as="geometry" />
        </mxCell>
        <mxCell id="CgrZ7WxuLpIuJzu3LAh--116" value="&lt;b&gt;Sub_id&lt;/b&gt;" style="whiteSpace=wrap;html=1;align=center;" vertex="1" parent="1">
          <mxGeometry x="380" y="1730" width="100" height="30" as="geometry" />
        </mxCell>
        <mxCell id="CgrZ7WxuLpIuJzu3LAh--117" value="&lt;b&gt;Mark&lt;/b&gt;" style="whiteSpace=wrap;html=1;align=center;" vertex="1" parent="1">
          <mxGeometry x="481" y="1730" width="100" height="30" as="geometry" />
        </mxCell>
        <mxCell id="CgrZ7WxuLpIuJzu3LAh--118" value="&lt;span style=&quot;font-size: 18px;&quot;&gt;MEDICAL&lt;/span&gt;" style="text;html=1;whiteSpace=wrap;strokeColor=none;fillColor=none;align=center;verticalAlign=middle;rounded=0;" vertex="1" parent="1">
          <mxGeometry x="153" y="1770" width="100" height="30" as="geometry" />
        </mxCell>
        <mxCell id="CgrZ7WxuLpIuJzu3LAh--120" value="&lt;b&gt;&lt;u&gt;Med_id&lt;/u&gt;&lt;/b&gt;" style="whiteSpace=wrap;html=1;align=center;" vertex="1" parent="1">
          <mxGeometry x="161" y="1800" width="110" height="30" as="geometry" />
        </mxCell>
        <mxCell id="CgrZ7WxuLpIuJzu3LAh--125" value="&lt;b&gt;Start_date&lt;/b&gt;" style="whiteSpace=wrap;html=1;align=center;" vertex="1" parent="1">
          <mxGeometry x="271" y="1800" width="110" height="30" as="geometry" />
        </mxCell>
        <mxCell id="CgrZ7WxuLpIuJzu3LAh--126" value="&lt;b&gt;End_date&lt;/b&gt;" style="whiteSpace=wrap;html=1;align=center;" vertex="1" parent="1">
          <mxGeometry x="381" y="1800" width="110" height="30" as="geometry" />
        </mxCell>
        <mxCell id="CgrZ7WxuLpIuJzu3LAh--127" value="Submitted_date" style="whiteSpace=wrap;html=1;align=center;" vertex="1" parent="1">
          <mxGeometry x="491" y="1800" width="110" height="30" as="geometry" />
        </mxCell>
        <mxCell id="CgrZ7WxuLpIuJzu3LAh--128" value="&lt;b&gt;Status&lt;/b&gt;" style="whiteSpace=wrap;html=1;align=center;" vertex="1" parent="1">
          <mxGeometry x="601" y="1800" width="110" height="30" as="geometry" />
        </mxCell>
        <mxCell id="CgrZ7WxuLpIuJzu3LAh--138" value="&lt;b&gt;Reason&lt;/b&gt;" style="whiteSpace=wrap;html=1;align=center;" vertex="1" parent="1">
          <mxGeometry x="711" y="1800" width="110" height="30" as="geometry" />
        </mxCell>
        <mxCell id="CgrZ7WxuLpIuJzu3LAh--139" value="&lt;b&gt;Approved_by&lt;/b&gt;" style="whiteSpace=wrap;html=1;align=center;" vertex="1" parent="1">
          <mxGeometry x="821" y="1800" width="110" height="30" as="geometry" />
        </mxCell>
        <mxCell id="CgrZ7WxuLpIuJzu3LAh--140" value="&lt;b&gt;Reg_no&lt;/b&gt;" style="whiteSpace=wrap;html=1;align=center;" vertex="1" parent="1">
          <mxGeometry x="931" y="1800" width="110" height="30" as="geometry" />
        </mxCell>
        <mxCell id="CgrZ7WxuLpIuJzu3LAh--141" value="&lt;span style=&quot;font-size: 18px;&quot;&gt;SPORTS&lt;/span&gt;" style="text;html=1;whiteSpace=wrap;strokeColor=none;fillColor=none;align=center;verticalAlign=middle;rounded=0;" vertex="1" parent="1">
          <mxGeometry x="149" y="1850" width="100" height="30" as="geometry" />
        </mxCell>
        <mxCell id="CgrZ7WxuLpIuJzu3LAh--142" value="&lt;b&gt;&lt;u&gt;Sport_id&lt;/u&gt;&lt;/b&gt;" style="whiteSpace=wrap;html=1;align=center;" vertex="1" parent="1">
          <mxGeometry x="161" y="1890" width="110" height="30" as="geometry" />
        </mxCell>
        <mxCell id="CgrZ7WxuLpIuJzu3LAh--143" value="&lt;b&gt;Sport_name&lt;/b&gt;" style="whiteSpace=wrap;html=1;align=center;" vertex="1" parent="1">
          <mxGeometry x="271" y="1890" width="110" height="30" as="geometry" />
        </mxCell>
        <mxCell id="CgrZ7WxuLpIuJzu3LAh--145" value="&lt;span style=&quot;font-size: 18px;&quot;&gt;STUDENT_SPORT&lt;/span&gt;" style="text;html=1;whiteSpace=wrap;strokeColor=none;fillColor=none;align=center;verticalAlign=middle;rounded=0;" vertex="1" parent="1">
          <mxGeometry x="190" y="1930" width="100" height="30" as="geometry" />
        </mxCell>
        <mxCell id="CgrZ7WxuLpIuJzu3LAh--146" value="&lt;b&gt;&lt;u&gt;Reg_no&lt;/u&gt;&lt;/b&gt;" style="whiteSpace=wrap;html=1;align=center;" vertex="1" parent="1">
          <mxGeometry x="161" y="1970" width="110" height="30" as="geometry" />
        </mxCell>
        <mxCell id="CgrZ7WxuLpIuJzu3LAh--147" value="&lt;b&gt;&lt;u&gt;Sport_id&lt;/u&gt;&lt;/b&gt;" style="whiteSpace=wrap;html=1;align=center;" vertex="1" parent="1">
          <mxGeometry x="271" y="1970" width="110" height="30" as="geometry" />
        </mxCell>
        <mxCell id="CgrZ7WxuLpIuJzu3LAh--148" value="&lt;b&gt;colours&lt;/b&gt;" style="whiteSpace=wrap;html=1;align=center;" vertex="1" parent="1">
          <mxGeometry x="381" y="1970" width="110" height="30" as="geometry" />
        </mxCell>
        <mxCell id="CgrZ7WxuLpIuJzu3LAh--149" value="&lt;span style=&quot;font-size: 18px;&quot;&gt;STUDENT_SPORT&lt;/span&gt;" style="text;html=1;whiteSpace=wrap;strokeColor=none;fillColor=none;align=center;verticalAlign=middle;rounded=0;" vertex="1" parent="1">
          <mxGeometry x="200" y="2020" width="100" height="30" as="geometry" />
        </mxCell>
      </root>
    </mxGraphModel>
  </diagram>
</mxfile>
